<svg width="371" height="173" viewBox="0 0 371 173" fill="none" xmlns="http://www.w3.org/2000/svg">
    <g clip-path="url(#clip0_5932_65)">
        <path d="M108.56 33.91L87.6699 80.96L63.8999 133.48H79.0399L86.2299 117.46H129.94L137.04 133.48H152.65L139.59 104.63L108.55 33.9L108.56 33.91ZM92.1699 104L108.14 68.35L124.02 104H92.1699Z"
              fill="#182654"/>
        <path d="M219.96 108.52C212.42 115.72 205 120.52 193.28 120.52C175.57 120.52 161.7 105.66 161.7 86.68V86.43C161.7 67.28 175.28 52.84 193.28 52.84C203.06 52.84 210.81 56.24 219.22 64.22L220.96 65.87L230.96 55.11L229.24 53.49C221.22 45.93 211.33 38.93 193.4 38.93C167.19 38.93 146.67 59.9 146.67 86.67V86.92C146.67 113.99 166.6 134.4 193.02 134.4C211.41 134.4 221.93 126.25 229.8 118.29L231.48 116.59L221.62 106.92L219.96 108.51V108.52Z"
              fill="#182654"/>
        <path d="M271.55 40.45H236.34V132.92H250.99V101.97H269.91C291.94 101.97 306.75 89.4799 306.75 70.9V70.65C306.75 52.31 292.93 40.46 271.54 40.46L271.55 40.45ZM250.99 54.34H270.8C284.26 54.34 291.98 60.42 291.98 71.01V71.26C291.98 81.54 283.47 88.18 270.3 88.18H251V54.33L250.99 54.34Z"
              fill="#182654"/>
        <path d="M370.65 156.92H0V172.92H370.65V156.92Z" fill="#C61725"/>
        <path d="M370.65 0.439941H0V16.4399H370.65V0.439941Z" fill="#C61725"/>
        <path d="M19.36 68.2599L14.79 82.3299H0L11.97 91.0299L7.4 105.1L19.36 96.3999L31.33 105.1L26.76 91.0299L38.73 82.3299H23.94L19.36 68.2599Z"
              fill="#182654"/>
        <path d="M7.4 63.16L19.37 54.46L31.33 63.16L26.76 49.09L38.73 40.39H23.94L19.37 26.33L14.79 40.39H0L11.97 49.09L7.4 63.16Z"
              fill="#182654"/>
        <path d="M23.94 124.27L19.36 110.21L14.79 124.27H0L11.97 132.97L7.4 147.04L19.36 138.34L31.33 147.04L26.76 132.97L38.73 124.27H23.94Z"
              fill="#182654"/>
        <path d="M351.29 68.2599L346.72 82.3299H331.93L343.89 91.0299L339.32 105.1L351.29 96.3999L363.26 105.1L358.69 91.0299L370.65 82.3299H355.86L351.29 68.2599Z"
              fill="#182654"/>
        <path d="M339.32 63.16L351.29 54.46L363.26 63.16L358.69 49.09L370.65 40.39H355.86L351.29 26.33L346.72 40.39H331.92L343.89 49.09L339.32 63.16Z"
              fill="#182654"/>
        <path d="M355.86 124.27L351.29 110.21L346.72 124.27H331.93L343.89 132.97L339.32 147.04L351.29 138.34L363.26 147.04L358.69 132.97L370.65 124.27H355.86Z"
              fill="#182654"/>
    </g>
    <defs>
        <clipPath id="clip0_5932_65">
            <rect width="370.65" height="172.48" fill="white" transform="translate(0 0.439941)"/>
        </clipPath>
    </defs>
</svg>
