<svg xmlns="http://www.w3.org/2000/svg" width="574" height="168" viewBox="0 0 574 168"><path d="M133.5 17.9c0 9.6-7.6 17.4-17 17.4H43.9c-9.4 0-17-7.8-17-17.4S34.5.4 43.9.4h72.6c9.4 0 17 7.8 17 17.5" fill="#DCDDDE"></path><path d="M120.2 60.3c0 9.7-7.6 17.5-17 17.5H30.6c-9.4 0-17-7.8-17-17.5S21.2 43 30.6 43h72.6c9.4 0 17 7.8 17 17.4" fill="#939598"></path><path d="M107 103.2c0 9.6-7.7 17.4-17 17.4H17.2c-9.4 0-17-7.8-17-17.4s7.6-17.5 17-17.5h72.6c9.4 0 17 7.8 17 17.5" fill="#4D4D4F"></path><path fill="#4F8ABE" fill-rule="nonzero" d="M522.7.4 574 0l-38 121h-49.2z"></path><path fill="#6E8CB1" d="M374.8 35.5h131v1h-131z"></path><path d="M373.4 36.5H506.7c3.8-12 7-24.3 11-36.1H362.3c-29.8.6-59 24.9-43.6 55.6 6.5 13 22.6 17.9 42 19.4h73.4c2.6 0 4.6 2.3 4.6 5a5 5 0 0 1-3.4 4.7c-.3.2-.6.3-1 .3l-135.4-.2c-2.5 11.4-7.1 24.4-9.8 35.7 32.7 0 76-.2 115.1-.1h49.6c47.1-5.3 54-74.1 1.2-74-20.1 0-44.3.2-66.4 0h-15.2c-3 0-5.4-2.3-5.4-5.1s2.4-5.2 5.4-5.2m-65.7 0 11-36.1V.3H197.3c-33.8 1.3-62.6 19.7-66.9 52-5 38.4 19.4 65.8 58.9 68.6h94.1l9.9-35.6h-.5l-63.7-.4-21.2-.2h-1.6c-16.8-.1-30.4-10.8-30.4-24 0-12.3 11.7-22.4 26.8-23.9 14.2-1.2 33-.3 45.2-.3h59.8z" fill="#4F8ABE"></path><path d="M18.2 140h-9l-.8 5.2h6.5L14 150H7.5l-1 5.7h10l-1.3 5H0L4.5 135h15l-1.3 4.9zm16.6 20.6H20.4l4.5-25.5h5.6L27 155.6H36c-.3 1.7-.8 3.5-1.3 5zM57.1 140h-9l-.8 5.2h6.5l-.9 4.8h-6.5l-1 5.7h10l-1.3 5H38.9l4.5-25.6h15L57 140zm21.7 1c-1.6-1-3.9-1.4-5.8-1.4-3.2 0-5.3 1.8-6.3 5.6-.5 1.8-.9 3.7-.9 5.8 0 3.6 1.6 5 4.8 5 2 0 4.5-.5 6-1.2.3 1.8.3 3.5.3 5.2-1.9.7-5 1-6.9 1-6.8 0-10.1-3.3-10.1-9.7 0-2.8.5-5.5 1.3-7.9 1.8-5.4 6.1-8.7 12.4-8.7 2.4 0 5.5.5 6.8 1.2-.3 1.4-1 3.4-1.6 5zm20.7-1H94l-3.6 20.6h-5.6l3.6-20.6h-5.7l.9-5h17.2c-.3 1.7-.8 3.5-1.3 5zm14.8 9.2c1.2 1.4 2.3 3.2 3 5.4l1.6 5.7c-1.9.4-3.8.6-5.7.6l-1-3.9c-.8-2.7-1.8-5-2.5-6h-2.5l-1.8 9.6H100l4.5-25.3c2.8-.3 5.6-.5 8.2-.5 4.4 0 7.5 2 7.5 6.7 0 4.2-2.5 6.9-5.9 7.7zm-2.7-9.9-2.4.1-1.3 7.3h2.2c2.5 0 4.5-1.5 4.5-4.5 0-2-1-2.9-3-2.9zm16.8 21.3h-5.6l4.5-25.5h5.6zm26-19.7c-1.6-.8-3.9-1.3-5.8-1.3-3.2 0-5.3 1.8-6.3 5.6-.5 1.8-.9 3.7-.9 5.8 0 3.6 1.7 5 4.8 5 2 0 4.5-.5 6-1.2.3 1.8.3 3.5.3 5.2-1.9.7-5 1-6.9 1-6.8 0-10-3.3-10-9.7 0-2.8.4-5.5 1.2-7.9 1.9-5.4 6.1-8.7 12.4-8.7 2.4 0 5.5.5 6.8 1.2-.3 1.4-1 3.4-1.6 5zm16.1 20-.6-6.4h-7.3l-2.8 6.3c-1.7 0-3.7 0-5.3-.4 3.7-8.4 7.8-16.7 12.1-25.3h6.3c1.2 8.5 2.3 17 3 25.3a26 26 0 0 1-5.4.4zm-1.7-18V140.9h-.4c-.1 1-.4 1.9-.5 2.2l-3.2 6.9h4.8l-.7-7zm25.1 17.7h-14.4l4.5-25.5h5.6l-3.6 20.5h9.2a51 51 0 0 1-1.3 5zm31.3-19.7c-1.5-.8-3.8-1.3-5.8-1.3-3.1 0-5.2 1.8-6.3 5.6-.5 1.8-.8 3.7-.8 5.8 0 3.6 1.6 5 4.8 5 2 0 4.5-.5 6-1.2l.3 5.2c-2 .7-5 1-6.9 1-6.9 0-10.1-3.3-10.1-9.7 0-2.8.5-5.5 1.3-7.9 1.8-5.4 6.1-8.7 12.4-8.7 2.4 0 5.5.5 6.8 1.2-.4 1.4-1 3.4-1.7 5zm25.5 7.3c-1.2 9-6.6 12.8-13 12.8-5.7 0-9.3-3.3-9.3-10 0-1.1 0-2.7.3-4 1.4-8.7 6.3-12.3 12.9-12.3 5.8 0 9.3 3.3 9.3 10.3 0 1 0 2-.2 3.2zm-9.8-8.7c-3.3 0-5.1 1.5-6.3 8l-.3 4c0 3.4 1.4 4.7 4 4.7 3.5 0 5.1-1.7 6.3-8 .3-1.6.4-2.9.4-4 0-3.5-1.5-4.7-4-4.7zm32.7 21c-1.5.2-4 .4-5.4.4l-5.7-15.2a26 26 0 0 1-.7-2.8l-.4.1-.1 3.1-2.6 14.6h-5.1l4.4-25.4a52 52 0 0 1 5.8-.3l5.4 14.2c.3.6.6 1.6.7 2.7h.4c0-.9.1-2.5.3-3.3l2.3-13.5h5.1l-4.4 25.4zm24.6-20.5h-5.5l-3.6 20.6h-5.6L287 140h-5.7l.9-5h17.2c-.3 1.7-.8 3.5-1.3 5zm14.8 9.2c1.3 1.4 2.3 3.2 3 5.4l1.7 5.7c-2 .4-3.9.6-5.8.6l-1-3.9c-.8-2.7-1.8-5-2.5-6h-2.5l-1.7 9.6h-5.5l4.5-25.3c2.8-.3 5.6-.5 8.2-.5 4.4 0 7.5 2 7.5 6.7 0 4.2-2.5 6.9-5.9 7.7zm-2.7-9.9-2.3.1-1.3 7.3h2c2.6 0 4.6-1.5 4.6-4.5 0-2-1-2.9-3-2.9zm24.9 21.5-.6-6.3h-7.3l-2.9 6.3c-1.6 0-3.7 0-5.2-.4 3.7-8.4 7.8-16.7 12-25.3h6.3c1.3 8.5 2.3 17 3.1 25.3a26 26 0 0 1-5.4.4zm-1.8-17.8v-2.2h-.3c-.2 1-.4 1.9-.6 2.2l-3.1 6.9h4.7l-.7-7zm30.2-2c-1.6-1-3.8-1.4-5.8-1.4-3.1 0-5.2 1.8-6.3 5.6-.5 1.8-.8 3.7-.8 5.8 0 3.6 1.6 5 4.7 5 2 0 4.5-.5 6-1.2.3 1.8.4 3.5.4 5.2-2 .7-5 1-7 1-6.8 0-10-3.3-10-9.7 0-2.8.5-5.5 1.3-7.9 1.8-5.4 6-8.7 12.4-8.7 2.4 0 5.4.5 6.7 1.2-.3 1.4-1 3.4-1.6 5zm20.7-1H379l-3.7 20.6h-5.6l3.6-20.6h-5.6l.8-5h17.2a36 36 0 0 1-1.3 5zm23.4 8.2c-1.2 9-6.5 12.8-12.9 12.8-5.7 0-9.4-3.3-9.4-10 0-1.1.1-2.7.3-4 1.4-8.7 6.4-12.3 13-12.3 5.7 0 9.3 3.3 9.3 10.3l-.3 3.2zm-9.7-8.7c-3.3 0-5.1 1.5-6.3 8l-.4 4c0 3.4 1.4 4.7 4 4.7 3.5 0 5.2-1.7 6.4-8l.3-4c0-3.5-1.5-4.7-4-4.7zm27 9.7c1.2 1.4 2.2 3.2 2.9 5.4l1.7 5.7c-2 .4-3.9.6-5.7.6l-1.1-3.9c-.8-2.7-1.8-5-2.5-6h-2.5l-1.7 9.6h-5.5l4.5-25.3c2.8-.3 5.6-.5 8.2-.5 4.4 0 7.5 2 7.5 6.7 0 4.2-2.5 6.9-5.8 7.7zm-2.7-9.9-2.4.1-1.3 7.3h2.1c2.5 0 4.5-1.5 4.5-4.5 0-2-1-2.9-3-2.9zm28.3 1c-1.7-.5-4.3-1-6-1-2.4 0-3.2 1.3-3.2 3 0 3.7 8.6 3.4 8.6 10.3 0 5.8-4.7 8.4-10.2 8.4-2.2 0-5.2-.4-7.1-1.3.4-1.8 1-3.4 1.6-4.8 1.7.8 4.5 1.4 6.5 1.4 2.4 0 3.4-1.1 3.4-2.9 0-3.9-8.7-3.5-8.7-10.4 0-5.7 4.6-8.3 10.5-8.3 1.6 0 4 .3 5.8.7a18 18 0 0 1-1.2 4.8zm8 18.1c-.5 3-2.3 5.8-5.8 8.8l-4.4-1.2c3.8-3.8 5-5.5 5.5-8.3l.3-1.3h4.7l-.2 2zm17.8 2.2h-5.6l4.5-25.5h5.7zm26.5-.2c-1.4.3-4 .5-5.4.5l-5.6-15.2a26 26 0 0 1-.7-2.8h-.4c0 1.2 0 2.4-.2 3.2l-2.6 14.5h-5l4.4-25.3a52 52 0 0 1 5.8-.4l5.4 14.2c.3.7.5 1.7.7 2.8h.4c0-1 0-2.5.2-3.3l2.4-13.5h5.1l-4.5 25.4zm26-19.5c-1.6-.8-3.9-1.3-5.9-1.3-3.1 0-5.2 1.8-6.3 5.6-.5 1.8-.8 3.7-.8 5.8 0 3.6 1.6 5 4.8 5 2 0 4.5-.5 6-1.2l.3 5.2c-2 .7-5 1-6.9 1-6.9 0-10.1-3.3-10.1-9.7 0-2.8.5-5.5 1.3-7.9 1.8-5.4 6.1-8.7 12.4-8.7 2.4 0 5.4.5 6.8 1.2a49 49 0 0 1-1.7 5zm4.5 20.1c-1.5 0-2.6-.8-2.6-2.3 0-2.3 1.6-3.4 3.5-3.4 1.3 0 2.4.9 2.4 2.4 0 2.2-1.5 3.3-3.3 3.3z" fill="#4D4D4F" fill-rule="nonzero"></path></svg>