<?xml version="1.0" encoding="UTF-8"?><svg id="b" xmlns="http://www.w3.org/2000/svg" viewBox="0 0 514.0798 243.41409"><g id="c"><path d="M313.70493,59.69114h-22.77569v14.63287c-11.95094-10.5762-27.63173-17.03554-44.66948-17.03554-36.88128,0-67.44536,30.22248-67.44536,67.10435,0,38.24691,30.22235,67.10305,67.44536,67.10305,17.1303,0,32.76787-6.1232,44.66948-16.44905v13.71779h22.77569V124.40069l.0002-.00787-.0002-.00755V59.69114Zm-22.77569,67.62537c-1.49507,24.14906-21.35832,42.44077-44.66948,42.44077-24.24447,0-44.77003-19.7817-44.77003-45.36447,0-24.69072,18.44341-45.36512,44.77003-45.36512,25.2627,0,43.25569,19.04012,44.66948,42.39547v5.89334ZM442.72887,57.28847c-14.36422,0-26.44324,4.13632-35.84437,11.26364v-8.86097h-22.77575V188.7646h22.77575V122.16475c1.22083-22.71321,8.36402-41.99465,35.84437-41.99465,30.79628,0,35.83897,24.21141,35.83897,50.3357v58.05022h22.77933V119.51745c0-35.2567-21.8772-62.22898-58.6183-62.22898ZM91.44747,111.52965v22.77569h50.13916v36.29401c-11.68041,14.35056-30.17035,23.83739-47.81881,23.83739-39.49345,0-70.99213-36.34379-70.99213-74.6265,0-40.94869,31.9834-74.14283,72.93105-74.14283,17.51446,0,34.85985,7.35054,47.84413,19.18896v-26.68606c-14.73752-8.64412-31.72321-13.34078-48.81362-13.34078C42.15943,24.82953,0,67.95845,0,120.53627c0,50.64001,41.18994,94.73731,92.31472,94.73731,31.5665,0,57.11379-14.69821,72.05228-37.74118l-.00469-66.00275H91.44747Z" fill="#084975"/><path d="M348.55677,31.41512c8.61406,0,15.70759-6.84123,15.70759-15.45522,0-8.86637-7.09354-15.95991-15.70759-15.95991s-15.70759,7.09354-15.70759,15.95991c0,8.61399,7.09354,15.45522,15.70759,15.45522Zm11.46929,28.27601h-22.77575V188.7646h22.77575V59.69114ZM212.63089,225.31157c1.13343-.53626,2.89292-1.40155,2.89292-4.44311,0-2.7146-1.25265-5.30841-6.11357-5.30841h-14.07644v21.29298h13.92728c5.75563,0,7.24674-3.87666,7.24674-6.26325,0-3.57781-2.23665-4.77111-3.87692-5.27821Zm-12.82379-6.41216h7.575c2.59459,0,3.6684,.8351,3.6684,2.59485,0,2.41575-1.64026,2.71356-2.89292,2.71356h-8.35048v-5.30841Zm8.02248,14.61322h-8.02248v-6.14351h8.67849c1.9982,0,3.37008,1.0444,3.37008,3.0124,0,2.74375-2.02814,3.13111-4.02608,3.13111Zm25.32036-13.06172c-5.60647,0-9.51333,3.36956-9.51333,8.64777,0,4.2057,2.6542,8.351,9.78171,8.351,6.02428,0,8.17165-3.4893,9.0661-5.24905h-4.47331c-.80516,1.312-1.9982,2.26685-4.71202,2.26685-4.08569,0-5.27847-2.7146-5.36802-4.47331h14.91128v-.59665c0-4.62221-2.68388-8.94661-9.69242-8.94661Zm-5.21886,6.91821c.68594-3.22066,3.37008-4.11511,5.27873-4.11511,2.02788,0,4.83124,.95381,5.33808,4.11511h-10.61681Zm64.44852-6.91821c-5.60647,0-9.51333,3.36956-9.51333,8.64777,0,4.2057,2.6542,8.351,9.78171,8.351,6.02428,0,8.17165-3.4893,9.0661-5.24905h-4.47331c-.80516,1.312-1.9982,2.26685-4.71202,2.26685-4.08569,0-5.27847-2.7146-5.36802-4.47331h14.91128v-.59665c0-4.62221-2.68388-8.94661-9.69242-8.94661Zm-5.21886,6.91821c.68594-3.22066,3.37008-4.11511,5.27873-4.11511,2.02788,0,4.83124,.95381,5.33808,4.11511h-10.61681Zm-15.00135,3.8777v-7.21706h4.29447v-2.98325h-4.29447v-4.89086h-4.11537v4.89086h-3.28053v2.98325h3.28053v8.40932c0,2.9822,.38761,4.77215,5.39796,4.77215,1.25239,0,2.05755-.08955,3.16104-.23845v-2.98325c-.984,.0302-1.93833,.06039-2.95253,.06039-1.40155,0-1.4911-.984-1.4911-2.80311Zm-16.61194,0v-7.21706h4.29447v-2.98325h-4.29447v-4.89086h-4.11537v4.89086h-3.28053v2.98325h3.28053v8.40932c0,2.9822,.38761,4.77215,5.39796,4.77215,1.25239,0,2.05755-.08955,3.16104-.23845v-2.98325c-.984,.0302-1.93833,.06039-2.95253,.06039-1.40155,0-1.4911-.984-1.4911-2.80311Zm58.00694-7.12855h-.05961v-3.07175h-4.11537v15.80652h4.11537v-7.63461c0-3.6684,2.95253-4.77111,5.04002-4.77111,.71587,0,1.4911,.02916,2.62453,.38735v-4.05576c-.53678-.08955-1.01394-.1489-1.64026-.1489-3.1613,0-4.86118,1.69936-5.96467,3.48826Zm46.88225,1.1933c1.13343-.53626,2.89292-1.40155,2.89292-4.44311,0-2.7146-1.25265-5.30841-6.11357-5.30841h-14.07644v21.29298h13.92728c5.75563,0,7.24674-3.87666,7.24674-6.26325,0-3.57781-2.23665-4.77111-3.87692-5.27821Zm-12.82379-6.41216h7.575c2.59459,0,3.66814,.8351,3.66814,2.59485,0,2.41575-1.64,2.71356-2.89265,2.71356h-8.35048v-5.30841Zm8.02248,14.61322h-8.02248v-6.14351h8.67849c1.9982,0,3.37008,1.0444,3.37008,3.0124,0,2.74375-2.02814,3.13111-4.02608,3.13111Zm141.60264-10.19926h-.05961c-.95433-1.6702-3.31021-2.68336-6.50118-2.68336-6.08389,0-8.76803,3.99536-8.76803,8.05112,0,5.8759,4.62247,7.99281,8.79771,7.99281,2.41575,0,4.47357-.656,6.44183-2.53446h.08929v1.90865c0,2.05755-.68568,4.56286-5.3977,4.56286-2.5053,0-4.44363-.328-4.86118-2.3564h-4.29447c.35794,4.08595,4.38402,5.1595,9.27487,5.1595,6.97835,0,9.3941-3.3404,9.3941-7.09835v-15.32857h-4.11563v2.3262Zm-5.30841,10.19926c-4.32414,0-5.72596-2.56465-5.72596-4.89086,0-2.8333,2.29653-4.8315,5.36828-4.8315,2.11743,0,5.66608,.98504,5.66608,4.77215,0,2.92285-2.17704,4.95021-5.30841,4.95021Zm-23.73945-12.88262c-2.80337,0-4.89086,1.10271-6.23306,2.80311h-.05961v-2.3866h-4.11537v15.80652h4.11537v-8.49991c0-3.36956,2.77343-4.56286,4.92079-4.56286,3.39975,0,3.96647,1.93885,3.96647,3.63925v9.42352h4.11537v-10.73656c0-4.26401-3.31021-5.48646-6.70996-5.48646Zm-79.27155,12.61397v-7.48467c0-2.0586-.23871-5.30841-8.49965-5.30841-4.68208,0-7.75384,1.28181-8.35022,5.42711h4.02608c.1489-1.75975,1.61033-2.62401,4.32414-2.62401,2.38582,0,4.47357,.44671,4.47357,2.26685,0,1.22245-.62633,1.43071-6.53138,1.99716-2.62427,.23949-7.09757,.62685-7.09757,4.98041,0,3.10195,2.32594,4.95125,6.44157,4.95125,4.62247,0,6.62067-1.40155,7.42583-2.1773,.11923,.59665,.41755,2.0284,3.10169,2.0284,1.40155,0,2.11743-.2093,2.92259-.3582v-2.89265c-.328,.05935-.95433,.08955-1.3422,.08955-.26839,0-.89445-.0302-.89445-.89549Zm-4.11563-2.74271c0,3.48826-3.72776,4.32336-5.93473,4.32336-1.40155,0-3.31021-.38735-3.31021-2.4751,0-1.3422,.74555-2.02736,3.84698-2.38556,2.92259-.328,4.20492-.4769,5.39796-.984v1.5213Zm23.0241-9.87126c-2.80337,0-4.89086,1.10271-6.23306,2.80311h-.05961v-2.3866h-4.11537v15.80652h4.11537v-8.49991c0-3.36956,2.77343-4.56286,4.92079-4.56286,3.39975,0,3.96647,1.93885,3.96647,3.63925v9.42352h4.11537v-10.73656c0-4.26401-3.31021-5.48646-6.70996-5.48646Zm37.90596-2.08775h4.11537v-3.3404h-4.11537v3.3404Zm-6.14403,2.50426h-5.81551l-7.30661,6.32261v-12.16727h-4.11563v21.65118h4.11563v-5.10015l2.59459-2.11691,5.60673,7.21706h5.54686l-7.93267-9.84107,7.30661-5.96545Zm6.14403,15.80652h4.11537v-15.80652h-4.11537v15.80652Z" fill="#0f9ad6"/><g><path d="M512.36345,218.98503c-.68949-.68943-1.64185-1.11593-2.69367-1.11593s-2.00421,.42651-2.69364,1.11593c-.68943,.68942-1.11593,1.64181-1.11593,2.69363s.42651,2.00418,1.11593,2.69367c.68942,.68933,1.64181,1.11585,2.69364,1.11585s2.00418-.42652,2.69367-1.11585c.68933-.68949,1.11585-1.64184,1.11585-2.69367s-.42652-2.00422-1.11585-2.69363h0Zm-2.69367-1.71639c1.2175,0,2.32014,.49372,3.11818,1.29182,.79814,.79813,1.29184,1.90064,1.29184,3.1182,0,1.2175-.4937,2.32014-1.29184,3.11818-.79804,.79814-1.90068,1.29184-3.11818,1.29184-1.21756,0-2.32007-.49371-3.1182-1.29184-.7981-.79804-1.29182-1.90068-1.29182-3.11818,0-1.21756,.49372-2.32007,1.29182-3.1182,.79813-.7981,1.90064-1.29182,3.1182-1.29182h0Z" fill="#0f9ad6"/><path d="M508.68926,221.61263v-1.32721h1.0102c.16627,0,.30811,.02534,.42697,.07487,.11886,.04952,.21131,.12217,.27519,.22011,.06389,.09794,.09576,.22008,.0969,.36535v.01321c0,.13096-.03086,.24541-.09245,.34224-.06058,.09794-.14858,.17392-.26415,.22893-.11671,.05391-.25754,.0814-.42266,.08251h-1.03Zm-1.01688,2.37714h1.01688v-1.4792h.79896l.9905,1.4792h1.18849l-1.12921-1.65075c.1971-.07264,.3698-.17284,.51838-.30261,.14743-.12877,.263-.28725,.34554-.4755,.08369-.1882,.12546-.40608,.12662-.65479v-.01321c0-.21899-.03417-.41706-.10135-.59536-.06705-.17826-.1661-.33126-.29487-.46111-.15188-.15295-.34109-.26852-.56675-.34884-.22553-.07924-.48637-.11997-.78022-.11997h-2.11296v4.62213h0Z" fill="#0f9ad6"/></g></g></svg>