<svg width="301" height="74" viewBox="0 0 301 74" fill="none" xmlns="http://www.w3.org/2000/svg">
<path d="M287.646 51.3629C275.664 51.3629 269.674 45.8999 269.674 34.9735C269.674 31.4038 270.375 28.3903 271.776 25.9334C273.179 23.4619 275.238 21.5975 277.956 20.3402C280.686 19.0828 284.018 18.4541 287.949 18.4541C290.508 18.4541 292.958 18.7143 295.299 19.2346V25.2397C293.115 24.7338 290.855 24.4809 288.512 24.4809C284.697 24.4809 281.894 25.3191 280.102 26.9957C278.31 28.6577 277.414 31.2882 277.414 34.8868C277.414 38.5433 278.294 41.2026 280.058 42.8646C281.821 44.5123 284.532 45.3361 288.188 45.3361C290.559 45.3361 292.928 45.011 295.299 44.3606V50.3439C292.972 51.0232 290.42 51.3629 287.646 51.3629Z" fill="#1F1E45"/>
<path d="M254.09 50.9512V18.8662H261.504V50.9512H254.09Z" fill="#1F1E45"/>
<path d="M229.416 50.9512V24.8062H218.684V18.8662H247.583V24.8062H236.83V50.9512H229.416Z" fill="#1F1E45"/>
<path d="M201.924 51.3629C198.469 51.3629 195.26 50.8931 192.298 49.9537V44.057C193.685 44.534 195.267 44.9098 197.045 45.1844C198.823 45.4445 200.463 45.5746 201.967 45.5746C204.149 45.5746 205.717 45.2638 206.67 44.6424C207.624 44.0065 208.101 43.0744 208.101 41.8458C208.101 41.1665 207.958 40.6029 207.668 40.1549C207.379 39.7068 206.888 39.3239 206.194 39.0058C205.515 38.6735 204.554 38.3627 203.311 38.0736L200.796 37.5317C197.603 36.838 195.26 35.7396 193.771 34.2364C192.284 32.7189 191.539 30.7172 191.539 28.2314C191.539 25.0952 192.724 22.6816 195.095 20.9906C197.464 19.2997 200.97 18.4541 205.61 18.4541C207.126 18.4541 208.578 18.5409 209.967 18.7143C211.354 18.8878 212.612 19.1262 213.739 19.4296V25.3265C212.655 24.994 211.412 24.7338 210.009 24.546C208.622 24.3436 207.242 24.2424 205.869 24.2424C203.355 24.2424 201.555 24.5603 200.472 25.1963C199.386 25.8322 198.844 26.7428 198.844 27.9279C198.844 28.5782 198.967 29.1203 199.214 29.5538C199.474 29.9729 199.9 30.3414 200.493 30.6594C201.099 30.9629 201.945 31.2447 203.028 31.5049L205.566 32.047C209.02 32.7984 211.521 33.9329 213.066 35.4504C214.628 36.968 215.408 38.9624 215.408 41.4339C215.408 43.4861 214.867 45.2567 213.781 46.7452C212.713 48.2338 211.167 49.3756 209.143 50.1705C207.119 50.9655 204.714 51.3629 201.924 51.3629Z" fill="#1F1E45"/>
<path d="M168.848 51.3629C165.51 51.3629 162.626 50.7414 160.198 49.4985C157.77 48.2556 155.899 46.4056 154.584 43.9487C153.268 41.4772 152.611 38.4639 152.611 34.9086C152.611 31.3531 153.268 28.347 154.584 25.89C155.899 23.4186 157.77 21.5614 160.198 20.3185C162.626 19.0756 165.51 18.4541 168.848 18.4541C172.187 18.4541 175.07 19.0828 177.498 20.3402C179.927 21.5831 181.798 23.4403 183.113 25.9116C184.428 28.3687 185.086 31.3676 185.086 34.9086C185.086 38.4494 184.428 41.4557 183.113 43.9269C181.798 46.384 179.92 48.241 177.477 49.4985C175.049 50.7414 172.172 51.3629 168.848 51.3629ZM168.848 45.488C171.652 45.488 173.798 44.6352 175.287 42.9297C176.776 41.2244 177.519 38.6012 177.519 35.0603C177.519 31.3892 176.769 28.6866 175.265 26.9524C173.777 25.2035 171.638 24.3292 168.848 24.3292C166.073 24.3292 163.934 25.1818 162.431 26.8873C160.928 28.5782 160.177 31.2014 160.177 34.7567C160.177 38.4711 160.914 41.1882 162.388 42.9081C163.877 44.628 166.03 45.488 168.848 45.488Z" fill="#1F1E45"/>
<path d="M137.468 18.8662H144.448V50.9512H136.991L121.989 29.3588V50.9512H115.008V18.8662H122.466L137.468 40.4584V18.8662Z" fill="#1F1E45"/>
<path d="M101.648 50.9512L92.1962 37.7269H88.9444V50.9512H81.5302V18.8662H88.9444V31.3533H92.1962L100.911 18.8662H108.737L97.9194 34.3883L109.735 50.9512H101.648Z" fill="#1F1E45"/>
<path d="M33.9624 12.8578L23.9063 24.5715C20.5092 28.1221 17.4347 30.1808 13.4996 28.7162C9.86614 27.3628 9.15527 24.1779 9.15527 19.1303L9.1499 15.1639H17.4313C17.5471 19.5297 18.4082 22.3305 21.7307 23.5829C21.4051 22.2025 21.3016 20.5571 21.3016 18.6426L21.2956 14.188C21.2937 12.8411 20.2049 11.749 18.8628 11.749H7.68763C6.34646 11.749 5.26013 12.8406 5.2621 14.188L5.26844 19.1322C5.26795 22.8652 5.26795 29.8133 12.1481 32.3742C13.4947 32.8757 14.7719 33.0889 15.9749 33.0889C21.1575 33.0889 24.9383 29.1294 26.7473 27.2345L37.1125 15.1634H47.5085L29.7241 34.5598L48.6671 55.2209H37.9499L26.7473 42.1739C24.9383 40.279 21.1575 36.3195 15.9749 36.3195C14.7719 36.3195 13.4947 36.5327 12.1481 37.0341C5.26795 39.5962 5.26795 46.5441 5.26795 50.2767L5.26062 56.1967C5.25868 57.5441 6.34451 58.6357 7.68667 58.6357H18.8622C20.2044 58.6357 21.2932 57.5441 21.2948 56.1967L21.302 50.7674C21.302 48.8532 21.4056 47.2078 21.7312 45.8271C18.1675 47.1701 17.4342 50.2937 17.4167 55.2217H9.14892L9.15527 50.2795C9.15527 45.2319 9.86614 42.0469 13.4996 40.6941C17.4347 39.229 20.5092 41.2882 23.9063 44.8384L34.8003 57.528C35.326 58.1397 36.405 58.6363 37.2097 58.6363H49.7934C53.8179 58.6363 54.8715 56.2262 52.1452 53.2534L35.0067 34.5608L50.9867 17.1324C53.7129 14.1591 52.6597 11.749 48.6343 11.749H36.3713C35.5668 11.749 34.4878 12.2455 33.9619 12.8578H33.9624Z" fill="#6861FF"/>
</svg>
