<svg width="183" height="35" viewBox="0 0 183 35" fill="none" xmlns="http://www.w3.org/2000/svg">
<path d="M6.89698 12.8137L6.91181 12.8015C7.76321 12.1026 8.86979 11.6355 10.1716 11.6355C11.0766 11.6355 12.0257 11.7967 12.8836 12.2473C13.7514 12.7031 14.347 13.3617 14.7131 14.098L17.9341 20.3325L26.1234 2.60235C26.4685 1.83334 27.0572 1.13297 27.949 0.646084C28.8233 0.168838 29.799 0 30.7265 0C32.0244 0 33.1427 0.454239 34.0026 1.17943C34.8645 1.89267 35.4176 2.83614 35.4176 3.94351C35.4176 4.4711 35.3435 5.05823 35.0859 5.6209L35.0818 5.62987L22.6766 32.3504L22.6721 32.36C22.3201 33.1072 21.7235 33.6876 21.0327 34.1241C20.2146 34.6667 19.2434 34.9507 18.2025 34.9507C17.3034 34.9507 16.3909 34.7642 15.5737 34.3066C14.7641 33.8534 14.2058 33.2225 13.8347 32.5471L13.8247 32.5289L13.8151 32.5105L5.92111 17.4398C5.56795 16.8122 5.48047 16.1441 5.48047 15.579C5.48047 14.4662 6.05111 13.5321 6.88241 12.8261L6.89698 12.8137Z" fill="url(#paint0_linear_301_8)"/>
<path d="M6.89698 12.8139L6.91181 12.8017C7.76321 12.1028 8.86979 11.6357 10.1716 11.6357C11.0766 11.6357 12.0257 11.7969 12.8836 12.2475C13.7514 12.7033 14.347 13.3619 14.7131 14.0982L17.9341 20.3327C21.5712 19.8899 29.9494 16.4326 34.8291 6.17441L35.0815 5.63074C35.0829 5.62753 35.0844 5.62431 35.0859 5.62109L35.0818 5.63006L35.0815 5.63074C34.9984 5.81406 34.9143 5.99527 34.8291 6.17441L22.6766 32.3506L22.672 32.3602C22.3201 33.1074 21.7235 33.6878 21.0327 34.1243C20.2146 34.6669 19.2434 34.9509 18.2025 34.9509C17.3034 34.9509 16.3908 34.7644 15.5737 34.3068C14.7641 33.8535 14.2058 33.2227 13.8347 32.5473L13.8247 32.5291L13.8151 32.5107L5.92113 17.44C5.56795 16.8124 5.48047 16.1443 5.48047 15.5792C5.48047 14.4664 6.05111 13.5323 6.88241 12.8263L6.89698 12.8139Z" fill="#129AFD"/>
<path d="M6.89698 12.814L6.91181 12.8018C7.76321 12.1029 8.86979 11.6358 10.1716 11.6358C11.0766 11.6358 12.0257 11.7969 12.8836 12.2476C13.7514 12.7034 14.347 13.362 14.7132 14.0983L17.9341 20.3328C24.1441 21.6647 28.8741 17.7188 30.4628 15.5793L22.6766 32.3506L22.672 32.3603C22.3201 33.1075 21.7235 33.6879 21.0327 34.1244C20.2145 34.667 19.2434 34.951 18.2025 34.951C17.3034 34.951 16.3908 34.7644 15.5737 34.3069C14.7641 33.8536 14.2058 33.2228 13.8347 32.5474L13.8247 32.5292L13.8151 32.5107L5.92111 17.44C5.56795 16.8125 5.48047 16.1444 5.48047 15.5793C5.48047 14.4665 6.05111 13.5323 6.88241 12.8264L6.89698 12.814Z" fill="#1590E9"/>
<path d="M6.89698 12.8142L6.91181 12.802C7.76321 12.1031 8.86979 11.636 10.1716 11.636C11.0766 11.636 12.0257 11.7971 12.8836 12.2478C13.7513 12.7036 14.347 13.3621 14.7131 14.0984L17.9341 20.3329C19.8821 21.5095 24.7982 22.8881 28.8792 18.9906L22.6766 32.3508L22.672 32.3605C22.3201 33.1076 21.7236 33.688 21.0329 34.1245C20.2146 34.6672 19.2435 34.9512 18.2025 34.9512C17.3034 34.9512 16.3908 34.7646 15.5737 34.3071C14.7641 33.8538 14.2058 33.2229 13.8347 32.5476L13.8247 32.5294L13.8151 32.5109L5.92112 17.4403C5.56795 16.8127 5.48047 16.1446 5.48047 15.5795C5.48047 14.4667 6.05111 13.5325 6.88241 12.8265L6.89698 12.8142Z" fill="#157BDA"/>
<path d="M6.89698 12.8142L6.91181 12.802C7.76321 12.1031 8.86979 11.636 10.1716 11.636C11.0766 11.636 12.0257 11.7971 12.8836 12.2478C13.7514 12.7036 14.347 13.3621 14.7131 14.0984L17.9341 20.3329C19.9435 23.167 24.836 23.2728 27.0311 22.9714L22.6766 32.3508L22.672 32.3605C22.3201 33.1076 21.7236 33.688 21.0329 34.1245C20.2146 34.6672 19.2435 34.9512 18.2025 34.9512C17.3034 34.9512 16.3908 34.7646 15.5737 34.3071C14.7641 33.8538 14.2058 33.2229 13.8347 32.5476L13.8247 32.5294L13.8151 32.5109L5.92112 17.4403C5.56795 16.8127 5.48047 16.1446 5.48047 15.5795C5.48047 14.4667 6.05111 13.5325 6.88241 12.8265L6.89698 12.8142Z" fill="url(#paint1_linear_301_8)"/>
<ellipse cx="4.86701" cy="4.86273" rx="4.86701" ry="4.86273" fill="url(#paint2_radial_301_8)"/>
<path d="M52.2738 30.0853L44.6543 8.10014H47.6961L54.2916 27.435H55.4059L61.4594 8.10014H64.4108L57.3334 30.0853H52.2738Z" fill="white"/>
<path d="M68.5069 30.0853V8.10014H81.2162V10.7504H71.4584V17.5869H80.5837V20.2372H71.4584V27.435H81.5173V30.0853H68.5069Z" fill="white"/>
<path d="M86.5652 30.0853V7.97967H93.7631C95.3693 7.97967 96.7747 8.2206 97.9794 8.70247C99.1841 9.18434 100.118 9.92721 100.78 10.9311C101.443 11.935 101.774 13.23 101.774 14.8162V15.298C101.774 17.0247 101.373 18.4101 100.569 19.4541C99.7864 20.4781 98.7122 21.2109 97.3469 21.6526L103.732 30.0853H100.148L94.2148 22.1345C94.0743 22.1345 93.9237 22.1345 93.7631 22.1345H89.5166V30.0853H86.5652ZM94.3052 10.5697H89.5166V19.5144H94.3052C95.6704 19.5144 96.7546 19.0927 97.5578 18.2495C98.3609 17.4062 98.7624 16.3421 98.7624 15.0571C98.7624 13.752 98.3609 12.6779 97.5578 11.8346C96.7546 10.9913 95.6704 10.5697 94.3052 10.5697Z" fill="white"/>
<path d="M116.847 30.6274C114.839 30.6274 113.122 30.276 111.697 29.5733C110.291 28.8706 109.157 27.9571 108.294 26.8327C107.43 25.7084 106.798 24.4936 106.396 23.1886C105.995 21.8635 105.794 20.5885 105.794 19.3638V18.7012C105.794 17.3761 105.995 16.0509 106.396 14.7258C106.818 13.4007 107.46 12.196 108.324 11.1118C109.187 10.0276 110.311 9.15422 111.697 8.49165C113.082 7.82909 114.739 7.4978 116.666 7.4978C119.597 7.4978 121.906 8.25072 123.593 9.75655C125.3 11.2423 126.293 13.23 126.574 15.7197H123.563C123.302 13.8524 122.529 12.4671 121.244 11.5636C119.979 10.6601 118.453 10.2083 116.666 10.2083C114.939 10.2083 113.484 10.6099 112.299 11.413C111.135 12.196 110.261 13.2601 109.679 14.6053C109.097 15.9305 108.806 17.4162 108.806 19.0626C108.806 20.6287 109.097 22.0843 109.679 23.4295C110.281 24.7747 111.175 25.8589 112.359 26.6821C113.564 27.5053 115.06 27.9169 116.847 27.9169C118.734 27.9169 120.32 27.4451 121.605 26.5014C122.89 25.5578 123.673 24.1925 123.954 22.4056H126.966C126.765 23.9114 126.253 25.2867 125.43 26.5315C124.627 27.7764 123.503 28.7702 122.057 29.5131C120.631 30.256 118.895 30.6274 116.847 30.6274Z" fill="white"/>
<path d="M131.24 30.0853V7.97967H138.438C140.044 7.97967 141.45 8.2206 142.654 8.70247C143.859 9.18434 144.793 9.92721 145.455 10.9311C146.118 11.935 146.449 13.23 146.449 14.8162V15.298C146.449 17.0247 146.048 18.4101 145.244 19.4541C144.461 20.4781 143.387 21.2109 142.022 21.6526L148.407 30.0853H144.823L138.89 22.1345C138.749 22.1345 138.599 22.1345 138.438 22.1345H134.192V30.0853H131.24ZM138.98 10.5697H134.192V19.5144H138.98C140.345 19.5144 141.43 19.0927 142.233 18.2495C143.036 17.4062 143.437 16.3421 143.437 15.0571C143.437 13.752 143.036 12.6779 142.233 11.8346C141.43 10.9913 140.345 10.5697 138.98 10.5697Z" fill="white"/>
<path d="M152.388 30.0853V8.10014H155.339V30.0853H152.388Z" fill="white"/>
<path d="M171.646 30.6274C169.679 30.6274 167.982 30.276 166.556 29.5733C165.131 28.8706 163.956 27.947 163.033 26.8026C162.109 25.6582 161.417 24.4334 160.955 23.1284C160.513 21.8233 160.292 20.5684 160.292 19.3638V18.7012C160.292 17.3961 160.523 16.0811 160.985 14.7559C161.447 13.4308 162.149 12.2261 163.093 11.1419C164.037 10.0376 165.211 9.15422 166.617 8.49165C168.042 7.82909 169.719 7.4978 171.646 7.4978C173.574 7.4978 175.24 7.82909 176.646 8.49165C178.071 9.15422 179.256 10.0376 180.199 11.1419C181.143 12.2261 181.846 13.4308 182.307 14.7559C182.769 16.0811 183 17.3961 183 18.7012V19.3638C183 20.5684 182.769 21.8233 182.307 23.1284C181.866 24.4334 181.183 25.6582 180.26 26.8026C179.336 27.947 178.161 28.8706 176.736 29.5733C175.31 30.276 173.614 30.6274 171.646 30.6274ZM171.646 27.9169C172.931 27.9169 174.086 27.676 175.11 27.1941C176.154 26.7122 177.037 26.0597 177.76 25.2365C178.483 24.3933 179.035 23.4496 179.416 22.4056C179.798 21.3414 179.988 20.2271 179.988 19.0626C179.988 17.4363 179.647 15.9606 178.965 14.6355C178.302 13.2902 177.348 12.2161 176.103 11.413C174.859 10.6099 173.373 10.2083 171.646 10.2083C169.94 10.2083 168.454 10.6099 167.189 11.413C165.944 12.2161 164.98 13.2902 164.298 14.6355C163.635 15.9606 163.304 17.4363 163.304 19.0626C163.304 20.2271 163.495 21.3414 163.876 22.4056C164.258 23.4496 164.81 24.3933 165.532 25.2365C166.255 26.0597 167.129 26.7122 168.153 27.1941C169.197 27.676 170.361 27.9169 171.646 27.9169Z" fill="white"/>
<defs>
<linearGradient id="paint0_linear_301_8" x1="26.155" y1="1.29369" x2="32.459" y2="13.7835" gradientUnits="userSpaceOnUse">
<stop stop-color="#B4E8FF"/>
<stop offset="0.283168" stop-color="#73D3FC"/>
<stop offset="1" stop-color="#00ACF5"/>
</linearGradient>
<linearGradient id="paint1_linear_301_8" x1="6.35858" y1="13.2674" x2="19.2901" y2="28.7533" gradientUnits="userSpaceOnUse">
<stop stop-color="#83B9FF"/>
<stop offset="0.279403" stop-color="#488DE8"/>
<stop offset="1" stop-color="#0A54B4"/>
</linearGradient>
<radialGradient id="paint2_radial_301_8" cx="0" cy="0" r="1" gradientUnits="userSpaceOnUse" gradientTransform="translate(1.95707 2.22784) rotate(57.0426) scale(8.04202 8.04911)">
<stop stop-color="#ED7B7B"/>
<stop offset="1" stop-color="#D70B0B"/>
</radialGradient>
</defs>
</svg>
