<svg width="133" height="30" viewBox="0 0 133 30" fill="none" xmlns="http://www.w3.org/2000/svg">
<g clip-path="url(#clip0_526_216)">
<path d="M61.9211 2.65569H54.1752C54.1752 2.65569 55.0727 3.47454 55.6407 4.33765C56.2088 5.20077 56.6932 6.08355 57.1801 7.08437L58.7563 10.2688L56.1916 15.2409L49.6973 2.65569H41.5776C41.5776 2.65569 42.4481 3.32946 43.2326 4.29831C43.9432 5.17372 44.4375 6.08355 44.9268 7.08191L49.7342 16.7311C55.5793 15.4057 61.4612 14.2278 67.3653 13.1877L61.9186 2.65569H61.9211Z" fill="#46B1EF"/>
<path d="M79.3065 2.65567H74.3516L69.1655 12.8778C71.0737 12.5508 72.9844 12.236 74.895 11.9385L79.3065 2.65567Z" fill="#46B1EF"/>
<path d="M54.7015 26.6975C54.7015 26.6975 54.7851 26.7712 55.0285 26.9483C55.272 27.1253 55.4171 27.209 55.4171 27.209L59.9958 17.5868C56.9835 17.9655 53.9195 18.4155 50.8384 18.9417L54.7039 26.6975H54.7015Z" fill="#002855"/>
<path d="M66.8882 26.6999C66.8882 26.6999 67.085 26.8475 67.2448 26.9507C67.4046 27.054 67.6407 27.1991 67.6407 27.1991L72.8022 16.3376C69.4038 16.5737 65.8678 16.8958 62.2432 17.3138L66.8858 26.6975L66.8882 26.6999Z" fill="#002855"/>
<path d="M110.396 2.65567H102.276C102.276 2.65567 104.059 4.05485 104.059 6.75485V8.20813C106.167 7.95731 108.284 7.70403 110.396 7.44829V2.65567Z" fill="#46B1EF"/>
<path d="M118.312 18.2311C118.312 19.5442 117.972 20.55 117.306 21.2163C116.637 21.8852 115.656 22.2221 114.387 22.2221C113.012 22.2221 111.994 21.8532 111.36 21.1254C110.721 20.3901 110.396 19.4163 110.396 18.2311V15.0786C108.284 15.1672 106.171 15.2434 104.059 15.3098V18.6024C104.059 20.0286 104.322 21.2877 104.841 22.35C105.36 23.4122 106.088 24.3098 107 25.0131C107.907 25.7139 108.997 26.245 110.236 26.5893C111.466 26.9311 112.818 27.1057 114.252 27.1057C115.575 27.1057 116.873 26.9336 118.115 26.5893C119.364 26.245 120.485 25.7163 121.447 25.018C122.416 24.3147 123.198 23.4221 123.775 22.3598C124.353 21.295 124.646 20.0336 124.646 18.6049V14.218C122.536 14.3926 120.424 14.5426 118.309 14.6729V18.2311H118.312Z" fill="#002855"/>
<path d="M124.648 2.65567H118.312V6.4819C120.448 6.21879 122.566 5.95321 124.648 5.6901V2.65567Z" fill="#46B1EF"/>
<path d="M77.9785 16.0352C78.1039 17.4762 78.4334 18.7967 78.972 19.9745C79.6703 21.509 80.681 22.8147 81.9744 23.8573C83.2629 24.8975 84.8416 25.7016 86.6662 26.2475C88.4834 26.7934 90.5539 27.0688 92.8187 27.0688C93.9424 27.0688 95.1449 27.0049 96.3941 26.8819C97.6359 26.759 98.8482 26.5918 99.999 26.3877L100.169 26.3581V16.0598H92.049C92.049 16.0598 93.8318 17.459 93.8318 20.159V22.2221H92.8875C91.4933 22.2221 90.2613 22.05 89.2285 21.7081C88.2006 21.3688 87.3375 20.877 86.6638 20.2475C85.99 19.618 85.4785 18.8311 85.1416 17.9065C84.9129 17.2795 84.7654 16.5762 84.6916 15.8163C82.69 15.8704 80.6933 15.9319 78.6965 16.0032C78.458 16.0131 78.2195 16.0254 77.9785 16.0377V16.0352Z" fill="#002855"/>
<path d="M69.1655 12.8778L68.1966 14.7885L67.3704 13.1876C61.4638 14.2278 55.5843 15.4057 49.7393 16.7311L50.8384 18.9393C53.922 18.4155 56.9835 17.9655 59.9958 17.5844L61.1663 15.1253L62.2483 17.3114C65.8704 16.8909 69.4089 16.5713 72.8073 16.3352L74.8975 11.936C72.9843 12.236 71.0737 12.5483 69.1679 12.8754L69.1655 12.8778Z" fill="#0070F0"/>
<path d="M124.648 5.69012C122.566 5.95324 120.448 6.21881 118.312 6.48193V14.6729C120.426 14.5426 122.539 14.3926 124.648 14.218V5.69012Z" fill="#0070F0"/>
<path d="M110.396 7.44829C108.284 7.70403 106.169 7.95731 104.059 8.20812V15.3122C106.171 15.2458 108.284 15.1696 110.396 15.0811V7.45075V7.44829Z" fill="#0070F0"/>
<path d="M85.1244 11.4442C85.2547 11.0754 85.4145 10.7336 85.594 10.409C83.1596 10.7237 80.7252 11.0655 78.2957 11.4221C78.0473 12.4426 77.9194 13.5393 77.9194 14.7098C77.9194 15.1622 77.9416 15.6049 77.9785 16.0352C78.217 16.0229 78.458 16.0131 78.6965 16.0008C80.6932 15.9295 82.6899 15.8704 84.6916 15.8139C84.6547 15.445 84.6301 15.0688 84.6301 14.6729C84.6301 13.4606 84.7973 12.3737 85.1268 11.4418L85.1244 11.4442Z" fill="#0070F0"/>
<path d="M99.4606 11.1098L99.8295 11.5942V8.70979C99.0377 8.80324 98.2459 8.89668 97.459 8.99012C98.1352 9.54832 98.8041 10.2516 99.4582 11.1098H99.4606Z" fill="#0070F0"/>
<path d="M91.1984 2.65569C89.0639 2.65569 87.382 2.84258 85.7074 3.44012C84.0328 4.03766 83.1254 4.46307 81.9033 5.51307C80.6787 6.56553 79.6975 7.87618 78.9893 9.40815C78.6992 10.0377 78.4705 10.709 78.2959 11.4196C80.7254 11.0606 83.1574 10.7213 85.5943 10.4065C85.8623 9.91471 86.1795 9.46471 86.5508 9.07864C87.1705 8.4393 87.9475 7.94749 88.8574 7.6229C89.7795 7.2934 90.8492 7.12618 92.0369 7.12618C93.4213 7.12618 94.7295 7.41635 95.927 7.98684C96.4385 8.23274 96.95 8.56962 97.4566 8.98766C98.2434 8.89421 99.0328 8.80077 99.827 8.70733V2.65077H91.1959L91.1984 2.65569Z" fill="#46B1EF"/>
<path d="M25.9455 13.35C27.5537 13.35 28.8594 14.6558 28.8594 16.2664C28.8594 17.8771 27.5537 19.1804 25.9455 19.1804C24.3373 19.1804 23.0315 17.8746 23.0315 16.2664C23.0315 14.6582 24.3348 13.35 25.9455 13.35ZM14.4815 16.2664C14.4815 14.6558 13.1758 13.35 11.5651 13.35C9.95448 13.35 8.6512 14.6558 8.6512 16.2664C8.6512 17.8771 9.95694 19.1804 11.5651 19.1804C13.1733 19.1804 14.4815 17.8746 14.4815 16.2664ZM35.6168 5.29676C35.6315 5.24512 35.575 5.20086 35.5282 5.22545C34.3651 5.82053 33.62 6.01725 32.72 5.99758C32.6635 5.99512 32.6463 5.92135 32.693 5.8943C34.8545 4.64266 37.0627 2.74676 37.3848 0.061516C37.3922 0.0123357 37.3332 -0.0196309 37.2938 0.00741829C33.1553 2.93857 29.7643 4.73365 25.2397 5.16889C25.2397 5.16889 22.3282 3.87299 18.7553 3.81889C15.1823 3.87299 12.2709 5.16889 12.2709 5.16889C7.74874 4.73365 4.35776 2.93857 0.219231 0.00741829C0.177428 -0.0196309 0.12087 0.0123357 0.125788 0.061516C0.450379 2.74676 2.65858 4.64266 4.81759 5.8943C4.86677 5.92135 4.8471 5.99512 4.79054 5.99758C3.89054 6.01725 3.14792 5.82053 1.9848 5.22545C1.93562 5.20086 1.87907 5.24758 1.89382 5.29922C3.07907 9.41315 7.28644 10.0697 11.8479 11.8574C15.6569 13.3525 17.8086 16.0451 18.5266 19.5271C18.6766 20.2623 18.7553 21.0345 18.7553 21.8361V25.355C18.7553 25.4041 18.6963 25.4263 18.6643 25.3894L15.834 22.232V19.9869C15.834 19.9377 15.7725 19.9156 15.7405 19.9525C14.5307 21.3148 12.7233 22.0673 10.6627 21.7623C8.58235 21.4525 6.84136 19.9673 6.24874 17.9484C5.55776 15.5951 6.37661 13.3697 7.96513 12.0222C7.99464 11.9976 7.98972 11.9533 7.9553 11.9386C6.77989 11.4123 5.43726 10.7976 4.48808 10.3402C4.46841 10.3304 4.44628 10.3353 4.43153 10.3525C3.1012 11.9558 2.30202 14.0164 2.30202 16.264C2.30202 21.3812 6.45038 25.5295 11.5676 25.5295C12.4135 25.5295 13.2766 25.4017 14.0561 25.1902L18.7184 29.9582C18.7381 29.9804 18.7725 29.9804 18.7946 29.9582L23.4545 25.1902C24.234 25.4017 25.0996 25.5295 25.9455 25.5295C31.0627 25.5295 35.211 21.3812 35.211 16.264C35.211 14.0164 34.4094 11.9558 33.0791 10.35C33.0643 10.3353 33.0446 10.3304 33.025 10.3377C32.0758 10.7976 30.7282 11.4123 29.5553 11.9386C29.5209 11.9533 29.5159 11.9976 29.543 12.0197C31.134 13.3673 31.9553 15.5951 31.2619 17.9484C30.6692 19.9673 28.9307 21.4525 26.8504 21.7623C24.7356 22.0771 22.8914 21.2755 21.6791 19.8468C21.2094 19.2836 20.816 18.6394 20.6315 17.8869C20.0881 15.6861 21.1258 14.4861 22.3455 13.5025C23.6143 12.4795 25.2225 11.9927 25.6455 11.8304C30.2143 10.0869 34.434 9.41316 35.6168 5.29676Z" fill="#002855"/>
<path d="M129.217 27.6394C127.431 27.6394 125.978 26.1861 125.978 24.4008C125.978 22.6156 127.431 21.1623 129.217 21.1623C131.002 21.1623 132.455 22.6156 132.455 24.4008C132.455 26.1861 131.002 27.6394 129.217 27.6394ZM129.217 21.8779C127.825 21.8779 126.694 23.009 126.694 24.3984C126.694 25.7877 127.825 26.9213 129.217 26.9213C130.608 26.9213 131.74 25.7902 131.74 24.3984C131.74 23.0066 130.608 21.8779 129.217 21.8779Z" fill="#002855"/>
<path d="M129.327 22.6697C129.758 22.6697 130.028 22.8124 130.19 22.9648C130.333 23.1025 130.486 23.346 130.486 23.7222C130.486 23.9361 130.439 24.1992 130.222 24.4132C130.104 24.5238 129.937 24.6271 129.75 24.6714L130.79 26.0583H129.836L128.922 24.723V26.0583H128.14V22.6722H129.327V22.6697ZM128.922 24.2066H129.099C129.241 24.2066 129.433 24.1919 129.566 24.0591C129.622 24.0025 129.694 23.8968 129.694 23.7296C129.694 23.5378 129.603 23.4345 129.536 23.3853C129.411 23.2894 129.207 23.2796 129.106 23.2796H128.924V24.2091L128.922 24.2066Z" fill="#002855"/>
</g>
<defs>
<clipPath id="clip0_526_216">
<rect width="132.541" height="30" fill="white"/>
</clipPath>
</defs>
</svg>
